<mxfile host="www.draw.io" modified="2020-02-22T00:38:52.381Z" agent="Mozilla/5.0 (Macintosh; Intel Mac OS X 10_15_1) AppleWebKit/537.36 (KHTML, like Gecko) Chrome/79.0.3945.117 Safari/537.36" etag="2twqlHVsFwAYiIom8HTI" version="12.7.3" type="github" pages="2">
  <diagram id="AbQhRcFVm3HJTPgC1ot1" name="ws">
    <mxGraphModel dx="1869" dy="706" grid="1" gridSize="10" guides="1" tooltips="1" connect="1" arrows="1" fold="1" page="1" pageScale="1" pageWidth="827" pageHeight="1169" math="0" shadow="0">
      <root>
        <mxCell id="0" />
        <mxCell id="1" parent="0" />
        <mxCell id="u4tHtjG39MxztwtaV4JS-32" value="" style="edgeStyle=orthogonalEdgeStyle;rounded=0;orthogonalLoop=1;jettySize=auto;html=1;fontSize=18;entryX=0.5;entryY=1;entryDx=0;entryDy=0;" parent="1" source="u4tHtjG39MxztwtaV4JS-6" target="u4tHtjG39MxztwtaV4JS-14" edge="1">
          <mxGeometry relative="1" as="geometry">
            <mxPoint x="108.5" y="910" as="targetPoint" />
            <Array as="points">
              <mxPoint x="249" y="800" />
              <mxPoint x="160" y="800" />
            </Array>
          </mxGeometry>
        </mxCell>
        <mxCell id="u4tHtjG39MxztwtaV4JS-35" style="edgeStyle=orthogonalEdgeStyle;rounded=0;orthogonalLoop=1;jettySize=auto;html=1;exitX=0.5;exitY=0;exitDx=0;exitDy=0;entryX=0.5;entryY=1;entryDx=0;entryDy=0;fontSize=18;" parent="1" source="u4tHtjG39MxztwtaV4JS-6" target="u4tHtjG39MxztwtaV4JS-15" edge="1">
          <mxGeometry relative="1" as="geometry" />
        </mxCell>
        <mxCell id="u4tHtjG39MxztwtaV4JS-36" style="edgeStyle=orthogonalEdgeStyle;rounded=0;orthogonalLoop=1;jettySize=auto;html=1;entryX=0.5;entryY=1;entryDx=0;entryDy=0;fontSize=18;" parent="1" target="u4tHtjG39MxztwtaV4JS-16" edge="1">
          <mxGeometry relative="1" as="geometry">
            <mxPoint x="249" y="800" as="sourcePoint" />
            <Array as="points">
              <mxPoint x="309" y="800" />
              <mxPoint x="330" y="800" />
            </Array>
          </mxGeometry>
        </mxCell>
        <mxCell id="u4tHtjG39MxztwtaV4JS-58" value="" style="edgeStyle=orthogonalEdgeStyle;rounded=0;orthogonalLoop=1;jettySize=auto;html=1;fontSize=18;entryX=0.5;entryY=0;entryDx=0;entryDy=0;entryPerimeter=0;" parent="1" source="u4tHtjG39MxztwtaV4JS-6" target="u4tHtjG39MxztwtaV4JS-59" edge="1">
          <mxGeometry relative="1" as="geometry">
            <mxPoint x="248.5" y="1020" as="targetPoint" />
          </mxGeometry>
        </mxCell>
        <mxCell id="u4tHtjG39MxztwtaV4JS-68" style="edgeStyle=orthogonalEdgeStyle;rounded=0;orthogonalLoop=1;jettySize=auto;html=1;exitX=1;exitY=0.5;exitDx=0;exitDy=0;entryX=1;entryY=0.5;entryDx=0;entryDy=0;entryPerimeter=0;fontSize=18;" parent="1" source="u4tHtjG39MxztwtaV4JS-6" target="u4tHtjG39MxztwtaV4JS-59" edge="1">
          <mxGeometry relative="1" as="geometry" />
        </mxCell>
        <mxCell id="u4tHtjG39MxztwtaV4JS-6" value="ws node 1" style="rounded=1;whiteSpace=wrap;html=1;fillColor=none;fontSize=18;" parent="1" vertex="1">
          <mxGeometry x="188.5" y="880" width="120" height="60" as="geometry" />
        </mxCell>
        <mxCell id="u4tHtjG39MxztwtaV4JS-37" style="edgeStyle=orthogonalEdgeStyle;rounded=0;orthogonalLoop=1;jettySize=auto;html=1;exitX=0.5;exitY=0;exitDx=0;exitDy=0;fontSize=18;" parent="1" source="u4tHtjG39MxztwtaV4JS-7" target="u4tHtjG39MxztwtaV4JS-17" edge="1">
          <mxGeometry relative="1" as="geometry" />
        </mxCell>
        <mxCell id="u4tHtjG39MxztwtaV4JS-38" style="edgeStyle=orthogonalEdgeStyle;rounded=0;orthogonalLoop=1;jettySize=auto;html=1;entryX=0.5;entryY=1;entryDx=0;entryDy=0;fontSize=18;" parent="1" target="u4tHtjG39MxztwtaV4JS-18" edge="1">
          <mxGeometry relative="1" as="geometry">
            <mxPoint x="410" y="800" as="sourcePoint" />
          </mxGeometry>
        </mxCell>
        <mxCell id="u4tHtjG39MxztwtaV4JS-69" style="edgeStyle=orthogonalEdgeStyle;rounded=0;orthogonalLoop=1;jettySize=auto;html=1;exitX=0.5;exitY=1;exitDx=0;exitDy=0;fontSize=18;entryX=1;entryY=0.5;entryDx=0;entryDy=0;entryPerimeter=0;" parent="1" source="u4tHtjG39MxztwtaV4JS-7" target="u4tHtjG39MxztwtaV4JS-59" edge="1">
          <mxGeometry relative="1" as="geometry">
            <mxPoint x="330" y="1070" as="targetPoint" />
            <Array as="points">
              <mxPoint x="412" y="1065" />
            </Array>
          </mxGeometry>
        </mxCell>
        <mxCell id="u4tHtjG39MxztwtaV4JS-7" value="ws node 2" style="rounded=1;whiteSpace=wrap;html=1;fillColor=none;fontSize=18;" parent="1" vertex="1">
          <mxGeometry x="351.5" y="880" width="120" height="60" as="geometry" />
        </mxCell>
        <mxCell id="u4tHtjG39MxztwtaV4JS-14" value="" style="shape=actor;whiteSpace=wrap;html=1;fillColor=none;fontSize=18;" parent="1" vertex="1">
          <mxGeometry x="140" y="616" width="40" height="60" as="geometry" />
        </mxCell>
        <mxCell id="u4tHtjG39MxztwtaV4JS-15" value="" style="shape=actor;whiteSpace=wrap;html=1;fillColor=none;fontSize=18;" parent="1" vertex="1">
          <mxGeometry x="228.5" y="616" width="40" height="60" as="geometry" />
        </mxCell>
        <mxCell id="u4tHtjG39MxztwtaV4JS-16" value="" style="shape=actor;whiteSpace=wrap;html=1;fillColor=none;fontSize=18;" parent="1" vertex="1">
          <mxGeometry x="310" y="616" width="40" height="60" as="geometry" />
        </mxCell>
        <mxCell id="u4tHtjG39MxztwtaV4JS-17" value="" style="shape=actor;whiteSpace=wrap;html=1;fillColor=none;fontSize=18;" parent="1" vertex="1">
          <mxGeometry x="391.5" y="616" width="40" height="60" as="geometry" />
        </mxCell>
        <mxCell id="u4tHtjG39MxztwtaV4JS-18" value="" style="shape=actor;whiteSpace=wrap;html=1;fillColor=none;fontSize=18;" parent="1" vertex="1">
          <mxGeometry x="490" y="618" width="40" height="60" as="geometry" />
        </mxCell>
        <mxCell id="u4tHtjG39MxztwtaV4JS-39" value="A" style="text;html=1;resizable=0;points=[];autosize=1;align=center;verticalAlign=top;spacingTop=-4;fontSize=18;" parent="1" vertex="1">
          <mxGeometry x="145" y="582" width="30" height="20" as="geometry" />
        </mxCell>
        <mxCell id="u4tHtjG39MxztwtaV4JS-42" value="B" style="text;html=1;resizable=0;points=[];autosize=1;align=center;verticalAlign=top;spacingTop=-4;fontSize=18;" parent="1" vertex="1">
          <mxGeometry x="233.5" y="582" width="30" height="20" as="geometry" />
        </mxCell>
        <mxCell id="u4tHtjG39MxztwtaV4JS-43" value="C" style="text;html=1;resizable=0;points=[];autosize=1;align=center;verticalAlign=top;spacingTop=-4;fontSize=18;" parent="1" vertex="1">
          <mxGeometry x="315" y="582" width="30" height="20" as="geometry" />
        </mxCell>
        <mxCell id="u4tHtjG39MxztwtaV4JS-44" value="D" style="text;html=1;resizable=0;points=[];autosize=1;align=center;verticalAlign=top;spacingTop=-4;fontSize=18;" parent="1" vertex="1">
          <mxGeometry x="396.5" y="582" width="30" height="20" as="geometry" />
        </mxCell>
        <mxCell id="u4tHtjG39MxztwtaV4JS-45" value="E" style="text;html=1;resizable=0;points=[];autosize=1;align=center;verticalAlign=top;spacingTop=-4;fontSize=18;" parent="1" vertex="1">
          <mxGeometry x="495" y="584" width="30" height="20" as="geometry" />
        </mxCell>
        <mxCell id="u4tHtjG39MxztwtaV4JS-49" style="edgeStyle=orthogonalEdgeStyle;rounded=0;orthogonalLoop=1;jettySize=auto;html=1;exitX=1;exitY=0.75;exitDx=0;exitDy=0;entryX=0;entryY=0.5;entryDx=0;entryDy=0;fontSize=18;" parent="1" source="u4tHtjG39MxztwtaV4JS-46" target="u4tHtjG39MxztwtaV4JS-47" edge="1">
          <mxGeometry relative="1" as="geometry" />
        </mxCell>
        <mxCell id="u4tHtjG39MxztwtaV4JS-46" value="" style="shape=actor;whiteSpace=wrap;html=1;fillColor=none;fontSize=18;" parent="1" vertex="1">
          <mxGeometry x="-255" y="1020" width="40" height="60" as="geometry" />
        </mxCell>
        <mxCell id="u4tHtjG39MxztwtaV4JS-48" style="edgeStyle=orthogonalEdgeStyle;rounded=0;orthogonalLoop=1;jettySize=auto;html=1;exitX=0.5;exitY=0;exitDx=0;exitDy=0;entryX=0;entryY=0.5;entryDx=0;entryDy=0;fontSize=18;" parent="1" source="u4tHtjG39MxztwtaV4JS-47" target="u4tHtjG39MxztwtaV4JS-6" edge="1">
          <mxGeometry relative="1" as="geometry">
            <Array as="points">
              <mxPoint x="44" y="910" />
            </Array>
          </mxGeometry>
        </mxCell>
        <mxCell id="u4tHtjG39MxztwtaV4JS-47" value="Proxy" style="rounded=1;whiteSpace=wrap;html=1;fillColor=none;fontSize=18;" parent="1" vertex="1">
          <mxGeometry x="-16.5" y="1040" width="120" height="50" as="geometry" />
        </mxCell>
        <mxCell id="u4tHtjG39MxztwtaV4JS-50" value="负载均衡到某个节点" style="text;html=1;strokeColor=none;fillColor=none;align=center;verticalAlign=middle;whiteSpace=wrap;rounded=0;fontSize=18;" parent="1" vertex="1">
          <mxGeometry x="43.5" y="970" width="167" height="20" as="geometry" />
        </mxCell>
        <mxCell id="u4tHtjG39MxztwtaV4JS-51" value="管理员" style="text;html=1;resizable=0;points=[];autosize=1;align=center;verticalAlign=top;spacingTop=-4;fontSize=18;" parent="1" vertex="1">
          <mxGeometry x="-270" y="1090" width="70" height="20" as="geometry" />
        </mxCell>
        <mxCell id="u4tHtjG39MxztwtaV4JS-52" value="向所有用户推送消息" style="text;html=1;resizable=0;points=[];autosize=1;align=left;verticalAlign=top;spacingTop=-4;fontSize=18;" parent="1" vertex="1">
          <mxGeometry x="-196.5" y="1070" width="180" height="20" as="geometry" />
        </mxCell>
        <mxCell id="u4tHtjG39MxztwtaV4JS-55" value="1" style="strokeWidth=2;html=1;shape=mxgraph.flowchart.start_2;whiteSpace=wrap;fillColor=none;fontSize=18;align=center;" parent="1" vertex="1">
          <mxGeometry x="-130.5" y="1025" width="30" height="30" as="geometry" />
        </mxCell>
        <mxCell id="u4tHtjG39MxztwtaV4JS-59" value="Redis/Kafka" style="strokeWidth=2;html=1;shape=mxgraph.flowchart.direct_data;whiteSpace=wrap;fillColor=none;fontSize=18;align=center;" parent="1" vertex="1">
          <mxGeometry x="179" y="1035" width="139" height="60" as="geometry" />
        </mxCell>
        <mxCell id="u4tHtjG39MxztwtaV4JS-60" value="pub" style="text;html=1;strokeColor=none;fillColor=none;align=center;verticalAlign=middle;whiteSpace=wrap;rounded=0;fontSize=18;" parent="1" vertex="1">
          <mxGeometry x="257.5" y="1003.5" width="41" height="8" as="geometry" />
        </mxCell>
        <mxCell id="u4tHtjG39MxztwtaV4JS-63" value="2" style="strokeWidth=2;html=1;shape=mxgraph.flowchart.start_2;whiteSpace=wrap;fillColor=none;fontSize=18;align=center;" parent="1" vertex="1">
          <mxGeometry y="967.5" width="30" height="30" as="geometry" />
        </mxCell>
        <mxCell id="u4tHtjG39MxztwtaV4JS-64" value="3" style="strokeWidth=2;html=1;shape=mxgraph.flowchart.start_2;whiteSpace=wrap;fillColor=none;fontSize=18;align=center;" parent="1" vertex="1">
          <mxGeometry x="262.5" y="963.5" width="30" height="30" as="geometry" />
        </mxCell>
        <mxCell id="u4tHtjG39MxztwtaV4JS-66" value="4" style="strokeWidth=2;html=1;shape=mxgraph.flowchart.start_2;whiteSpace=wrap;fillColor=none;fontSize=18;align=center;" parent="1" vertex="1">
          <mxGeometry x="345" y="1075" width="30" height="30" as="geometry" />
        </mxCell>
        <mxCell id="u4tHtjG39MxztwtaV4JS-67" value="sub" style="text;html=1;strokeColor=none;fillColor=none;align=center;verticalAlign=middle;whiteSpace=wrap;rounded=0;fontSize=18;" parent="1" vertex="1">
          <mxGeometry x="376" y="1082" width="41" height="8" as="geometry" />
        </mxCell>
        <mxCell id="u4tHtjG39MxztwtaV4JS-71" value="5" style="strokeWidth=2;html=1;shape=mxgraph.flowchart.start_2;whiteSpace=wrap;fillColor=none;fontSize=18;align=center;" parent="1" vertex="1">
          <mxGeometry x="418" y="830" width="30" height="30" as="geometry" />
        </mxCell>
        <mxCell id="u4tHtjG39MxztwtaV4JS-72" value="push" style="text;html=1;strokeColor=none;fillColor=none;align=center;verticalAlign=middle;whiteSpace=wrap;rounded=0;fontSize=18;" parent="1" vertex="1">
          <mxGeometry x="449" y="837" width="41" height="8" as="geometry" />
        </mxCell>
        <mxCell id="u4tHtjG39MxztwtaV4JS-73" value="5" style="strokeWidth=2;html=1;shape=mxgraph.flowchart.start_2;whiteSpace=wrap;fillColor=none;fontSize=18;align=center;" parent="1" vertex="1">
          <mxGeometry x="256.5" y="826" width="30" height="30" as="geometry" />
        </mxCell>
        <mxCell id="u4tHtjG39MxztwtaV4JS-74" value="push" style="text;html=1;strokeColor=none;fillColor=none;align=center;verticalAlign=middle;whiteSpace=wrap;rounded=0;fontSize=18;" parent="1" vertex="1">
          <mxGeometry x="287.5" y="833" width="41" height="8" as="geometry" />
        </mxCell>
      </root>
    </mxGraphModel>
  </diagram>
  <diagram id="aWOpo4DpX3DMdDGyn_nT" name="ws-concurrent">
    <mxGraphModel dx="1042" dy="706" grid="1" gridSize="10" guides="1" tooltips="1" connect="1" arrows="1" fold="1" page="1" pageScale="1" pageWidth="827" pageHeight="1169" math="0" shadow="0">
      <root>
        <mxCell id="z6TMfegY9FTbhiwMqSdQ-0" />
        <mxCell id="z6TMfegY9FTbhiwMqSdQ-1" parent="z6TMfegY9FTbhiwMqSdQ-0" />
        <mxCell id="zd_GrXmfDELZZgHETm0d-0" value="" style="edgeStyle=orthogonalEdgeStyle;rounded=0;orthogonalLoop=1;jettySize=auto;html=1;fontSize=18;entryX=0.5;entryY=1;entryDx=0;entryDy=0;" parent="z6TMfegY9FTbhiwMqSdQ-1" source="zd_GrXmfDELZZgHETm0d-5" target="zd_GrXmfDELZZgHETm0d-10" edge="1">
          <mxGeometry relative="1" as="geometry">
            <mxPoint x="518.5" y="698" as="targetPoint" />
            <Array as="points">
              <mxPoint x="659" y="588" />
              <mxPoint x="570" y="588" />
            </Array>
          </mxGeometry>
        </mxCell>
        <mxCell id="zd_GrXmfDELZZgHETm0d-1" style="edgeStyle=orthogonalEdgeStyle;rounded=0;orthogonalLoop=1;jettySize=auto;html=1;exitX=0.5;exitY=0;exitDx=0;exitDy=0;entryX=0.5;entryY=1;entryDx=0;entryDy=0;fontSize=18;" parent="z6TMfegY9FTbhiwMqSdQ-1" source="zd_GrXmfDELZZgHETm0d-5" target="zd_GrXmfDELZZgHETm0d-11" edge="1">
          <mxGeometry relative="1" as="geometry" />
        </mxCell>
        <mxCell id="zd_GrXmfDELZZgHETm0d-2" style="edgeStyle=orthogonalEdgeStyle;rounded=0;orthogonalLoop=1;jettySize=auto;html=1;entryX=0.5;entryY=1;entryDx=0;entryDy=0;fontSize=18;" parent="z6TMfegY9FTbhiwMqSdQ-1" target="zd_GrXmfDELZZgHETm0d-12" edge="1">
          <mxGeometry relative="1" as="geometry">
            <mxPoint x="659" y="588" as="sourcePoint" />
            <Array as="points">
              <mxPoint x="719" y="588" />
              <mxPoint x="740" y="588" />
            </Array>
          </mxGeometry>
        </mxCell>
        <mxCell id="zd_GrXmfDELZZgHETm0d-5" value="ws node 1" style="rounded=1;whiteSpace=wrap;html=1;fillColor=none;fontSize=18;" parent="z6TMfegY9FTbhiwMqSdQ-1" vertex="1">
          <mxGeometry x="598.5" y="668" width="120" height="60" as="geometry" />
        </mxCell>
        <mxCell id="zd_GrXmfDELZZgHETm0d-6" style="edgeStyle=orthogonalEdgeStyle;rounded=0;orthogonalLoop=1;jettySize=auto;html=1;exitX=0.5;exitY=0;exitDx=0;exitDy=0;fontSize=18;" parent="z6TMfegY9FTbhiwMqSdQ-1" source="zd_GrXmfDELZZgHETm0d-9" target="zd_GrXmfDELZZgHETm0d-13" edge="1">
          <mxGeometry relative="1" as="geometry" />
        </mxCell>
        <mxCell id="zd_GrXmfDELZZgHETm0d-7" style="edgeStyle=orthogonalEdgeStyle;rounded=0;orthogonalLoop=1;jettySize=auto;html=1;entryX=0.5;entryY=1;entryDx=0;entryDy=0;fontSize=18;" parent="z6TMfegY9FTbhiwMqSdQ-1" target="zd_GrXmfDELZZgHETm0d-14" edge="1">
          <mxGeometry relative="1" as="geometry">
            <mxPoint x="820" y="588" as="sourcePoint" />
          </mxGeometry>
        </mxCell>
        <mxCell id="zd_GrXmfDELZZgHETm0d-9" value="ws node 2" style="rounded=1;whiteSpace=wrap;html=1;fillColor=none;fontSize=18;" parent="z6TMfegY9FTbhiwMqSdQ-1" vertex="1">
          <mxGeometry x="761.5" y="668" width="120" height="60" as="geometry" />
        </mxCell>
        <mxCell id="zd_GrXmfDELZZgHETm0d-10" value="" style="shape=actor;whiteSpace=wrap;html=1;fillColor=none;fontSize=18;" parent="z6TMfegY9FTbhiwMqSdQ-1" vertex="1">
          <mxGeometry x="550" y="404" width="40" height="60" as="geometry" />
        </mxCell>
        <mxCell id="zd_GrXmfDELZZgHETm0d-11" value="" style="shape=actor;whiteSpace=wrap;html=1;fillColor=none;fontSize=18;" parent="z6TMfegY9FTbhiwMqSdQ-1" vertex="1">
          <mxGeometry x="638.5" y="404" width="40" height="60" as="geometry" />
        </mxCell>
        <mxCell id="zd_GrXmfDELZZgHETm0d-12" value="" style="shape=actor;whiteSpace=wrap;html=1;fillColor=none;fontSize=18;" parent="z6TMfegY9FTbhiwMqSdQ-1" vertex="1">
          <mxGeometry x="720" y="404" width="40" height="60" as="geometry" />
        </mxCell>
        <mxCell id="zd_GrXmfDELZZgHETm0d-13" value="" style="shape=actor;whiteSpace=wrap;html=1;fillColor=none;fontSize=18;" parent="z6TMfegY9FTbhiwMqSdQ-1" vertex="1">
          <mxGeometry x="801.5" y="404" width="40" height="60" as="geometry" />
        </mxCell>
        <mxCell id="zd_GrXmfDELZZgHETm0d-14" value="" style="shape=actor;whiteSpace=wrap;html=1;fillColor=none;fontSize=18;" parent="z6TMfegY9FTbhiwMqSdQ-1" vertex="1">
          <mxGeometry x="900" y="406" width="40" height="60" as="geometry" />
        </mxCell>
        <mxCell id="zd_GrXmfDELZZgHETm0d-15" value="A" style="text;html=1;resizable=0;points=[];autosize=1;align=center;verticalAlign=top;spacingTop=-4;fontSize=18;" parent="z6TMfegY9FTbhiwMqSdQ-1" vertex="1">
          <mxGeometry x="555" y="370" width="30" height="20" as="geometry" />
        </mxCell>
        <mxCell id="zd_GrXmfDELZZgHETm0d-16" value="B" style="text;html=1;resizable=0;points=[];autosize=1;align=center;verticalAlign=top;spacingTop=-4;fontSize=18;" parent="z6TMfegY9FTbhiwMqSdQ-1" vertex="1">
          <mxGeometry x="643.5" y="370" width="30" height="20" as="geometry" />
        </mxCell>
        <mxCell id="zd_GrXmfDELZZgHETm0d-17" value="C" style="text;html=1;resizable=0;points=[];autosize=1;align=center;verticalAlign=top;spacingTop=-4;fontSize=18;" parent="z6TMfegY9FTbhiwMqSdQ-1" vertex="1">
          <mxGeometry x="725" y="370" width="30" height="20" as="geometry" />
        </mxCell>
        <mxCell id="zd_GrXmfDELZZgHETm0d-18" value="D" style="text;html=1;resizable=0;points=[];autosize=1;align=center;verticalAlign=top;spacingTop=-4;fontSize=18;" parent="z6TMfegY9FTbhiwMqSdQ-1" vertex="1">
          <mxGeometry x="806.5" y="370" width="30" height="20" as="geometry" />
        </mxCell>
        <mxCell id="zd_GrXmfDELZZgHETm0d-19" value="E" style="text;html=1;resizable=0;points=[];autosize=1;align=center;verticalAlign=top;spacingTop=-4;fontSize=18;" parent="z6TMfegY9FTbhiwMqSdQ-1" vertex="1">
          <mxGeometry x="905" y="372" width="30" height="20" as="geometry" />
        </mxCell>
        <mxCell id="zd_GrXmfDELZZgHETm0d-20" style="edgeStyle=orthogonalEdgeStyle;rounded=0;orthogonalLoop=1;jettySize=auto;html=1;exitX=1;exitY=0.75;exitDx=0;exitDy=0;entryX=0;entryY=0.5;entryDx=0;entryDy=0;fontSize=18;" parent="z6TMfegY9FTbhiwMqSdQ-1" source="zd_GrXmfDELZZgHETm0d-21" target="zd_GrXmfDELZZgHETm0d-23" edge="1">
          <mxGeometry relative="1" as="geometry" />
        </mxCell>
        <mxCell id="zd_GrXmfDELZZgHETm0d-21" value="" style="shape=actor;whiteSpace=wrap;html=1;fillColor=none;fontSize=18;" parent="z6TMfegY9FTbhiwMqSdQ-1" vertex="1">
          <mxGeometry x="345" y="810" width="40" height="60" as="geometry" />
        </mxCell>
        <mxCell id="zd_GrXmfDELZZgHETm0d-22" style="edgeStyle=orthogonalEdgeStyle;rounded=0;orthogonalLoop=1;jettySize=auto;html=1;exitX=0.5;exitY=0;exitDx=0;exitDy=0;fontSize=18;entryX=0.5;entryY=1;entryDx=0;entryDy=0;" parent="z6TMfegY9FTbhiwMqSdQ-1" source="zd_GrXmfDELZZgHETm0d-23" target="zd_GrXmfDELZZgHETm0d-5" edge="1">
          <mxGeometry relative="1" as="geometry">
            <mxPoint x="540" y="760" as="targetPoint" />
            <Array as="points">
              <mxPoint x="659" y="800" />
              <mxPoint x="659" y="800" />
            </Array>
          </mxGeometry>
        </mxCell>
        <mxCell id="zd_GrXmfDELZZgHETm0d-23" value="Proxy" style="rounded=1;whiteSpace=wrap;html=1;fillColor=none;fontSize=18;" parent="z6TMfegY9FTbhiwMqSdQ-1" vertex="1">
          <mxGeometry x="598.5" y="830" width="120" height="50" as="geometry" />
        </mxCell>
        <mxCell id="zd_GrXmfDELZZgHETm0d-24" value="负载均衡到某个节点" style="text;html=1;strokeColor=none;fillColor=none;align=center;verticalAlign=middle;whiteSpace=wrap;rounded=0;fontSize=18;" parent="z6TMfegY9FTbhiwMqSdQ-1" vertex="1">
          <mxGeometry x="703.5" y="765" width="167" height="20" as="geometry" />
        </mxCell>
        <mxCell id="zd_GrXmfDELZZgHETm0d-25" value="管理员" style="text;html=1;resizable=0;points=[];autosize=1;align=center;verticalAlign=top;spacingTop=-4;fontSize=18;" parent="z6TMfegY9FTbhiwMqSdQ-1" vertex="1">
          <mxGeometry x="330" y="880" width="70" height="20" as="geometry" />
        </mxCell>
        <mxCell id="zd_GrXmfDELZZgHETm0d-26" value="向所有用户推送消息" style="text;html=1;resizable=0;points=[];autosize=1;align=left;verticalAlign=top;spacingTop=-4;fontSize=18;" parent="z6TMfegY9FTbhiwMqSdQ-1" vertex="1">
          <mxGeometry x="403.5" y="860" width="180" height="20" as="geometry" />
        </mxCell>
        <mxCell id="zd_GrXmfDELZZgHETm0d-27" value="1" style="strokeWidth=2;html=1;shape=mxgraph.flowchart.start_2;whiteSpace=wrap;fillColor=none;fontSize=18;align=center;" parent="z6TMfegY9FTbhiwMqSdQ-1" vertex="1">
          <mxGeometry x="469.5" y="815" width="30" height="30" as="geometry" />
        </mxCell>
        <mxCell id="zd_GrXmfDELZZgHETm0d-30" value="2" style="strokeWidth=2;html=1;shape=mxgraph.flowchart.start_2;whiteSpace=wrap;fillColor=none;fontSize=18;align=center;" parent="z6TMfegY9FTbhiwMqSdQ-1" vertex="1">
          <mxGeometry x="673.5" y="760" width="30" height="30" as="geometry" />
        </mxCell>
        <mxCell id="zd_GrXmfDELZZgHETm0d-36" value="3" style="strokeWidth=2;html=1;shape=mxgraph.flowchart.start_2;whiteSpace=wrap;fillColor=none;fontSize=18;align=center;" parent="z6TMfegY9FTbhiwMqSdQ-1" vertex="1">
          <mxGeometry x="666.5" y="614" width="30" height="30" as="geometry" />
        </mxCell>
        <mxCell id="zd_GrXmfDELZZgHETm0d-37" value="push" style="text;html=1;strokeColor=none;fillColor=none;align=center;verticalAlign=middle;whiteSpace=wrap;rounded=0;fontSize=18;" parent="z6TMfegY9FTbhiwMqSdQ-1" vertex="1">
          <mxGeometry x="697.5" y="621" width="41" height="8" as="geometry" />
        </mxCell>
        <mxCell id="zd_GrXmfDELZZgHETm0d-38" value="" style="rounded=0;html=1;fontSize=18;align=center;fillColor=none;strokeColor=#EA6B66;" parent="z6TMfegY9FTbhiwMqSdQ-1" vertex="1">
          <mxGeometry x="782" y="352" width="289" height="148" as="geometry" />
        </mxCell>
        <mxCell id="zd_GrXmfDELZZgHETm0d-39" value="没有收到消息通知" style="text;html=1;strokeColor=none;fillColor=none;align=center;verticalAlign=middle;whiteSpace=wrap;rounded=0;fontSize=18;fontColor=#FF0000;" parent="z6TMfegY9FTbhiwMqSdQ-1" vertex="1">
          <mxGeometry x="960" y="424" width="80" height="20" as="geometry" />
        </mxCell>
      </root>
    </mxGraphModel>
  </diagram>
</mxfile>
